<?xml version="1.0" standalone="no"?>
<!DOCTYPE svg PUBLIC "-//W3C//DTD SVG 20010904//EN"
 "http://www.w3.org/TR/2001/REC-SVG-20010904/DTD/svg10.dtd">
<svg version="1.0" xmlns="http://www.w3.org/2000/svg"
 width="1024.000000pt" height="1024.000000pt" viewBox="0 0 1024.000000 1024.000000"
 preserveAspectRatio="xMidYMid meet">
<metadata>
Created by potrace 1.16, written by Peter Selinger 2001-2019
</metadata>
<g transform="translate(0.000000,1024.000000) scale(0.100000,-0.100000)"
fill="#000000" stroke="none">
<path d="M4836 9939 c-776 -44 -1544 -283 -2206 -684 -1067 -647 -1840 -1681
-2159 -2885 -209 -789 -209 -1651 0 -2440 442 -1672 1747 -2977 3419 -3419
457 -121 979 -176 1434 -152 473 25 848 94 1276 233 1545 504 2732 1762 3149
3338 209 789 209 1651 0 2440 -319 1204 -1092 2238 -2159 2885 -823 499 -1790
739 -2754 684z m799 -688 c796 -108 1482 -399 2098 -889 170 -136 493 -459
629 -629 498 -626 789 -1321 895 -2138 26 -201 26 -749 0 -950 -106 -817 -397
-1512 -895 -2138 -136 -170 -459 -493 -629 -629 -626 -498 -1321 -789 -2138
-895 -201 -26 -749 -26 -950 0 -817 106 -1512 397 -2138 895 -170 136 -493
459 -629 629 -498 626 -789 1321 -895 2138 -26 201 -26 749 0 950 106 817 397
1512 895 2138 136 170 459 493 629 629 672 535 1429 833 2313 912 25 2 185 2
355 1 243 -3 342 -8 460 -24z"/>
<path d="M6180 7695 c-47 -8 -125 -26 -175 -42 l-90 -28 -407 -3 -408 -2 0
-350 0 -350 110 0 110 0 0 -507 c0 -430 -2 -504 -14 -488 -7 11 -140 236 -296
500 -155 264 -377 641 -494 837 l-211 358 -822 0 -823 0 0 -345 0 -345 375 0
375 0 0 -780 0 -780 -165 0 -165 0 0 -350 0 -350 720 0 720 0 0 350 0 350
-165 0 -165 0 0 518 0 517 45 -75 c24 -41 253 -428 509 -860 l464 -785 589 -7
c486 -6 608 -5 704 7 267 34 489 134 644 289 160 161 235 360 235 628 0 281
-69 450 -259 631 -79 75 -106 93 -238 159 -81 41 -248 114 -371 163 -325 128
-394 177 -394 279 0 73 48 139 125 171 49 20 189 37 243 29 l41 -6 -8 -36 c-4
-21 -15 -82 -25 -137 -9 -55 -20 -115 -24 -132 -5 -18 -5 -33 -2 -33 4 0 120
-20 257 -45 389 -71 418 -76 420 -73 1 2 17 82 34 178 17 96 47 261 67 365 49
271 84 469 81 470 -1 1 -83 16 -182 34 -99 17 -250 45 -335 61 -137 25 -177
29 -350 28 -116 0 -230 -5 -280 -13z m260 -1952 c74 -32 129 -72 151 -106 30
-48 22 -125 -18 -175 -37 -46 -119 -89 -198 -103 -60 -11 -269 -7 -312 7 l-23
6 0 269 0 268 178 -73 c97 -40 197 -82 222 -93z"/>
<path d="M4390 7626 c0 -3 91 -157 203 -343 l203 -338 112 -3 112 -3 0 346 0
345 -315 0 c-173 0 -315 -2 -315 -4z"/>
<path d="M2440 4020 l0 -350 2720 0 2720 0 0 350 0 350 -2720 0 -2720 0 0
-350z"/>
<path d="M6340 3442 c-75 -9 -122 -41 -140 -98 -27 -80 14 -143 120 -185 34
-13 65 -30 67 -37 17 -42 -71 -56 -144 -22 l-43 19 0 -23 c0 -13 -3 -38 -6
-55 -6 -29 -4 -32 32 -47 53 -22 165 -21 206 3 49 29 72 66 72 120 0 70 -23
97 -116 141 -64 30 -78 40 -76 57 2 16 12 21 50 23 28 2 59 -3 77 -12 35 -18
36 -17 45 45 6 39 4 48 -11 54 -27 10 -105 21 -133 17z"/>
<path d="M2430 3385 l0 -55 60 0 60 0 0 -175 0 -175 60 0 60 0 0 175 0 175 55
0 55 0 0 55 0 55 -175 0 -175 0 0 -55z"/>
<path d="M2840 3210 l0 -230 55 0 54 0 3 93 3 92 80 0 80 0 3 -92 3 -93 54 0
55 0 0 230 0 230 -55 0 -55 0 0 -85 0 -86 -82 3 -83 3 -3 83 -3 82 -54 0 -55
0 0 -230z"/>
<path d="M3320 3210 l0 -230 140 0 140 0 0 55 0 55 -85 0 -85 0 0 40 0 40 70
0 70 0 0 50 0 50 -70 0 -70 0 0 30 0 30 85 0 85 0 0 55 0 55 -140 0 -140 0 0
-230z"/>
<path d="M3810 3210 l0 -230 55 0 55 0 0 138 0 137 81 -137 81 -138 64 0 64 0
-2 228 -3 227 -52 3 -52 3 -3 -138 -3 -138 -80 137 -80 138 -62 0 -63 0 0
-230z"/>
<path d="M4401 3413 c-6 -16 -44 -119 -85 -231 l-74 -203 61 3 61 3 15 48 15
48 79 -3 79 -3 17 -45 16 -45 58 -3 c31 -2 57 1 57 5 0 4 -37 108 -82 231
l-82 222 -62 0 c-58 0 -62 -2 -73 -27z"/>
<path d="M4670 3385 l0 -55 60 0 60 0 0 -175 0 -175 60 0 60 0 0 175 0 175 55
0 55 0 0 55 0 55 -175 0 -175 0 0 -55z"/>
<path d="M5080 3210 l0 -230 60 0 60 0 0 230 0 230 -60 0 -60 0 0 -230z"/>
<path d="M5250 3432 c0 -8 129 -394 145 -434 6 -15 19 -18 69 -18 l61 0 74
218 c41 119 76 223 79 230 3 9 -12 12 -56 12 -49 0 -62 -3 -66 -17 -2 -10 -24
-79 -47 -153 l-42 -135 -49 153 -49 152 -59 0 c-33 0 -60 -4 -60 -8z"/>
<path d="M5720 3210 l0 -230 140 0 140 0 0 55 0 55 -85 0 -85 0 0 40 0 40 70
0 70 0 0 50 0 50 -70 0 -70 0 0 30 0 30 85 0 85 0 0 55 0 55 -140 0 -140 0 0
-230z"/>
<path d="M6570 3210 l0 -230 55 0 54 0 3 93 3 92 80 0 80 0 3 -92 3 -93 54 0
55 0 0 230 0 230 -55 0 -55 0 0 -85 0 -86 -82 3 -83 3 -3 83 -3 82 -54 0 -55
0 0 -230z"/>
<path d="M7154 3421 c-134 -61 -168 -262 -62 -377 46 -50 90 -67 169 -67 68 1
125 28 167 79 74 89 64 253 -20 331 -57 54 -175 70 -254 34z m146 -96 c44 -23
63 -67 58 -133 -4 -47 -10 -60 -37 -84 -42 -38 -90 -38 -133 1 -27 24 -32 36
-35 87 -3 47 0 66 17 92 31 51 78 64 130 37z"/>
<path d="M7540 3211 l0 -231 55 0 55 0 0 80 0 80 41 0 c89 0 153 65 153 156 0
101 -48 135 -201 142 l-103 5 0 -232z"/>
<path d="M2780 2640 l0 -120 2380 0 2380 0 0 120 0 120 -2380 0 -2380 0 0
-120z"/>
</g>
</svg>
