<svg id="svg" version="1.1" xmlns="http://www.w3.org/2000/svg" xmlns:xlink="http://www.w3.org/1999/xlink" width="80" height="80" viewBox="0, 0, 400,400"><g id="svgg"><path id="path0" d="M140.000 204.168 L 140.000 278.336 154.948 278.283 L 169.896 278.229 169.896 226.313 C 169.896 182.244,169.939 174.482,170.181 174.959 C 170.338 175.268,170.760 175.990,171.118 176.564 C 171.477 177.138,171.887 177.795,172.028 178.023 C 172.170 178.251,172.431 178.762,172.609 179.159 C 172.787 179.556,173.010 179.931,173.105 179.993 C 173.200 180.054,173.486 180.516,173.741 181.019 C 173.996 181.522,174.298 182.038,174.412 182.165 C 174.525 182.292,174.868 182.837,175.174 183.376 C 175.479 183.915,176.144 185.087,176.651 185.980 C 177.159 186.873,177.792 187.894,178.058 188.249 C 178.324 188.603,178.542 188.995,178.542 189.119 C 178.542 189.244,178.664 189.469,178.813 189.621 C 179.057 189.868,179.763 191.073,180.862 193.117 C 181.075 193.514,181.250 193.748,181.250 193.638 C 181.250 193.528,181.452 193.859,181.699 194.375 C 181.946 194.891,182.461 195.797,182.845 196.389 C 183.228 196.982,183.542 197.537,183.542 197.623 C 183.542 197.709,183.673 197.928,183.833 198.109 C 183.993 198.289,184.334 198.813,184.590 199.271 C 184.847 199.729,185.240 200.432,185.464 200.833 C 185.688 201.234,186.186 202.078,186.571 202.708 C 186.956 203.339,187.468 204.211,187.709 204.648 C 187.949 205.085,188.491 205.975,188.912 206.627 C 189.332 207.279,189.875 208.234,190.118 208.750 C 190.360 209.266,190.714 209.816,190.904 209.973 C 191.094 210.131,191.250 210.382,191.250 210.531 C 191.250 210.681,191.397 210.951,191.577 211.131 C 191.757 211.311,191.828 211.460,191.734 211.462 C 191.640 211.463,191.667 211.534,191.795 211.618 C 191.923 211.702,192.230 212.146,192.478 212.604 C 193.155 213.854,193.814 214.986,194.542 216.146 C 194.902 216.719,195.483 217.703,195.834 218.333 C 196.184 218.964,196.746 219.901,197.082 220.417 C 197.418 220.932,197.835 221.635,198.008 221.979 C 198.182 222.323,198.677 223.182,199.110 223.888 C 199.542 224.594,200.644 226.469,201.557 228.055 C 202.471 229.640,203.336 231.059,203.479 231.208 C 203.623 231.356,203.903 231.825,204.102 232.249 C 204.301 232.674,204.569 233.130,204.699 233.264 C 204.829 233.397,205.055 233.795,205.201 234.149 C 205.347 234.502,205.555 234.792,205.663 234.792 C 205.770 234.792,205.800 234.885,205.729 235.000 C 205.658 235.115,205.678 235.208,205.772 235.208 C 205.866 235.208,206.110 235.560,206.314 235.990 C 206.518 236.419,207.006 237.286,207.398 237.917 C 207.790 238.547,208.272 239.367,208.469 239.740 C 208.666 240.112,208.909 240.417,209.009 240.417 C 209.109 240.417,209.133 240.510,209.063 240.625 C 208.992 240.740,209.033 240.833,209.154 240.833 C 209.276 240.833,209.382 240.951,209.391 241.094 C 209.400 241.237,209.679 241.776,210.011 242.292 C 210.342 242.807,210.767 243.581,210.954 244.010 C 211.142 244.440,211.361 244.792,211.442 244.792 C 211.523 244.792,211.754 245.143,211.956 245.573 C 212.157 246.003,212.535 246.682,212.796 247.083 C 213.056 247.484,213.815 248.750,214.482 249.896 C 215.149 251.042,215.899 252.307,216.148 252.708 C 217.116 254.265,220.326 259.699,220.574 260.201 C 220.718 260.491,221.113 261.151,221.452 261.667 C 222.045 262.567,222.689 263.662,223.702 265.498 C 223.962 265.969,224.452 266.776,224.789 267.292 C 225.127 267.807,225.641 268.651,225.933 269.167 C 226.224 269.682,226.628 270.385,226.830 270.729 C 227.033 271.073,227.565 272.010,228.014 272.813 C 228.463 273.615,228.892 274.318,228.969 274.375 C 229.046 274.432,229.275 274.807,229.479 275.208 C 229.683 275.609,229.923 275.985,230.013 276.044 C 230.102 276.102,230.422 276.641,230.724 277.242 L 231.272 278.333 250.115 278.333 L 268.958 278.333 268.958 204.165 L 268.958 129.997 254.010 130.051 L 239.063 130.104 239.010 181.559 L 238.957 233.014 238.229 231.932 C 237.828 231.337,237.500 230.752,237.500 230.633 C 237.500 230.514,237.401 230.417,237.279 230.417 C 237.158 230.417,237.113 230.329,237.179 230.223 C 237.245 230.116,237.209 229.973,237.099 229.905 C 236.989 229.837,236.504 229.057,236.022 228.172 C 235.540 227.287,235.027 226.422,234.883 226.250 C 234.739 226.078,234.391 225.516,234.110 225.000 C 233.829 224.484,233.120 223.266,232.534 222.292 C 231.949 221.318,231.222 220.057,230.919 219.489 C 230.615 218.922,230.173 218.172,229.937 217.823 C 228.979 216.409,228.783 216.087,228.028 214.687 C 227.596 213.885,227.002 212.854,226.710 212.396 C 225.523 210.538,225.218 210.030,224.266 208.333 C 222.425 205.051,222.213 204.688,222.075 204.583 C 221.999 204.526,221.694 204.057,221.397 203.542 C 219.792 200.753,219.047 199.447,218.900 199.167 C 218.810 198.995,218.418 198.339,218.029 197.708 C 217.640 197.078,216.937 195.888,216.466 195.064 C 215.347 193.108,214.233 191.240,213.906 190.775 C 213.481 190.169,211.016 185.926,210.854 185.521 C 210.808 185.406,210.704 185.266,210.622 185.208 C 210.540 185.151,210.260 184.682,209.999 184.167 C 209.739 183.651,209.343 182.995,209.119 182.708 C 208.895 182.422,208.583 181.906,208.426 181.563 C 208.268 181.219,207.925 180.595,207.663 180.176 C 206.365 178.097,204.939 175.682,203.661 173.398 C 203.097 172.388,202.519 171.469,202.378 171.354 C 202.237 171.240,201.920 170.724,201.674 170.208 C 201.428 169.693,200.927 168.786,200.561 168.193 C 199.641 166.704,197.481 163.029,195.621 159.792 C 195.128 158.932,194.587 158.069,194.420 157.873 C 194.254 157.677,193.892 157.068,193.617 156.519 C 193.064 155.417,192.215 153.969,191.932 153.646 C 191.832 153.531,191.685 153.297,191.606 153.125 C 191.527 152.953,191.090 152.203,190.636 151.458 C 190.181 150.714,189.563 149.647,189.263 149.089 C 188.963 148.531,188.415 147.640,188.047 147.110 C 187.678 146.580,187.204 145.771,186.992 145.313 C 186.781 144.854,186.410 144.199,186.169 143.857 C 185.927 143.515,185.565 142.905,185.364 142.503 C 185.163 142.100,184.723 141.349,184.386 140.833 C 184.049 140.318,183.293 139.052,182.705 138.021 C 182.117 136.990,181.320 135.630,180.933 135.000 C 180.012 133.501,179.174 132.035,178.596 130.909 L 178.129 130.000 159.065 130.000 L 140.000 130.000 140.000 204.168 " stroke="none" fill="#940404" fill-rule="evenodd"></path><path id="path1" d="M349.271 127.230 C 345.913 127.292,340.169 127.699,339.688 127.909 C 339.458 128.009,337.866 128.293,336.150 128.539 C 334.433 128.785,332.933 129.063,332.817 129.156 C 332.700 129.250,331.807 129.494,330.833 129.700 C 329.859 129.905,329.016 130.134,328.958 130.208 C 328.901 130.282,328.245 130.510,327.500 130.714 C 326.755 130.919,325.753 131.263,325.272 131.480 C 324.791 131.697,324.348 131.875,324.287 131.875 C 323.621 131.875,316.913 135.408,316.079 136.198 C 315.927 136.341,315.735 136.458,315.650 136.458 C 315.185 136.458,310.909 139.967,308.796 142.083 C 307.938 142.943,307.148 143.620,307.040 143.589 C 306.932 143.557,306.912 143.642,306.996 143.776 C 307.079 143.911,307.015 144.125,306.855 144.250 C 306.482 144.543,304.087 147.700,303.741 148.357 C 303.597 148.630,303.409 148.901,303.324 148.958 C 303.104 149.106,301.042 153.218,301.042 153.509 C 301.042 153.642,300.965 153.750,300.871 153.750 C 300.778 153.750,300.532 154.289,300.325 154.948 C 300.118 155.607,299.882 156.193,299.799 156.250 C 299.716 156.307,299.433 157.245,299.170 158.333 C 298.907 159.422,298.618 160.408,298.527 160.525 C 298.436 160.641,298.205 161.860,298.013 163.233 C 297.821 164.606,297.556 165.954,297.425 166.229 C 297.071 166.975,297.092 179.829,297.448 179.948 C 297.591 179.996,297.708 180.296,297.708 180.615 C 297.708 181.443,298.301 184.817,298.534 185.313 C 298.641 185.542,298.932 186.479,299.180 187.396 C 299.429 188.313,299.696 189.109,299.774 189.167 C 299.853 189.224,300.089 189.740,300.300 190.313 C 300.510 190.885,300.792 191.495,300.927 191.667 C 301.062 191.839,301.344 192.378,301.555 192.865 C 301.766 193.352,302.011 193.750,302.101 193.750 C 302.190 193.750,302.325 193.942,302.399 194.177 C 302.540 194.622,304.707 197.624,305.566 198.564 C 305.839 198.862,306.034 199.237,306.000 199.397 C 305.965 199.557,306.039 199.669,306.164 199.647 C 306.288 199.624,307.049 200.281,307.856 201.105 C 309.317 202.600,310.463 203.648,311.592 204.525 C 311.919 204.780,312.563 205.281,313.021 205.639 C 313.479 205.997,314.127 206.432,314.460 206.605 C 314.793 206.778,315.168 207.004,315.293 207.108 C 315.860 207.579,317.218 208.388,318.901 209.260 C 319.906 209.781,320.842 210.301,320.980 210.415 C 321.118 210.530,321.726 210.819,322.332 211.058 C 322.938 211.296,323.481 211.563,323.540 211.650 C 323.598 211.738,324.091 211.977,324.635 212.183 C 325.180 212.388,325.625 212.643,325.625 212.749 C 325.625 212.855,325.712 212.887,325.819 212.821 C 325.926 212.755,326.067 212.790,326.134 212.897 C 326.200 213.005,326.723 213.248,327.294 213.438 C 327.866 213.628,328.333 213.848,328.333 213.928 C 328.333 214.007,328.990 214.296,329.792 214.569 C 330.594 214.842,331.250 215.129,331.250 215.208 C 331.250 215.286,331.648 215.468,332.135 215.612 C 332.622 215.756,333.302 216.040,333.646 216.244 C 333.990 216.448,334.786 216.780,335.417 216.981 C 336.047 217.182,336.656 217.416,336.771 217.500 C 336.885 217.584,337.495 217.820,338.125 218.024 C 338.755 218.228,339.340 218.498,339.424 218.624 C 339.508 218.751,339.578 218.772,339.580 218.672 C 339.582 218.572,339.701 218.584,339.844 218.697 C 339.987 218.811,340.479 219.024,340.938 219.170 C 341.396 219.317,342.098 219.610,342.497 219.822 C 342.896 220.035,343.283 220.208,343.357 220.208 C 343.431 220.208,343.854 220.366,344.297 220.560 C 344.741 220.753,345.174 220.893,345.260 220.872 C 345.346 220.851,345.417 220.912,345.417 221.009 C 345.417 221.105,345.979 221.354,346.667 221.563 C 347.354 221.771,347.917 222.003,347.917 222.078 C 347.917 222.154,348.456 222.383,349.115 222.588 C 349.773 222.793,350.594 223.127,350.938 223.330 C 351.281 223.533,351.914 223.812,352.344 223.949 C 352.773 224.087,353.125 224.275,353.125 224.369 C 353.125 224.462,353.383 224.603,353.698 224.681 C 355.385 225.103,361.844 229.196,361.719 229.764 C 361.690 229.894,361.749 229.977,361.850 229.948 C 362.099 229.877,363.061 230.928,363.227 231.452 C 363.301 231.684,363.440 231.875,363.536 231.875 C 363.807 231.875,364.375 233.720,364.516 235.059 C 364.587 235.721,364.724 236.312,364.822 236.373 C 365.071 236.527,365.045 238.489,364.792 238.646 C 364.677 238.717,364.583 239.107,364.583 239.513 C 364.583 240.611,363.998 242.669,363.380 243.742 C 362.570 245.148,361.852 246.052,361.646 245.925 C 361.545 245.863,361.515 245.947,361.579 246.113 C 361.711 246.458,360.876 247.134,360.559 246.938 C 360.445 246.868,360.407 246.900,360.475 247.009 C 360.712 247.392,359.076 248.819,357.588 249.529 C 357.196 249.716,356.875 249.936,356.875 250.018 C 356.875 250.100,356.406 250.335,355.833 250.541 C 355.260 250.747,354.792 250.977,354.792 251.052 C 354.792 251.128,354.065 251.395,353.177 251.647 C 352.289 251.898,351.407 252.189,351.216 252.293 C 348.892 253.556,332.320 253.566,329.479 252.305 C 329.250 252.204,327.984 251.916,326.667 251.665 C 325.349 251.415,324.177 251.138,324.063 251.050 C 323.948 250.962,323.151 250.723,322.292 250.518 C 321.432 250.313,320.682 250.084,320.625 250.009 C 320.568 249.934,319.724 249.658,318.750 249.394 C 317.776 249.131,316.932 248.852,316.875 248.775 C 316.818 248.698,316.208 248.462,315.521 248.250 C 314.833 248.039,314.224 247.802,314.167 247.723 C 314.109 247.645,313.453 247.363,312.708 247.096 C 311.964 246.829,311.307 246.547,311.250 246.469 C 311.193 246.392,310.560 246.111,309.844 245.847 C 309.128 245.582,308.542 245.299,308.542 245.216 C 308.542 245.134,308.154 244.939,307.681 244.783 C 307.207 244.626,306.711 244.400,306.577 244.280 C 306.444 244.161,305.506 243.641,304.493 243.125 C 303.480 242.609,302.541 242.081,302.406 241.951 C 302.272 241.821,301.745 241.504,301.237 241.246 C 300.728 240.988,300.252 240.683,300.177 240.567 C 299.651 239.746,299.457 240.711,299.095 245.965 C 298.890 248.929,298.643 251.542,298.546 251.771 C 298.449 252.000,298.207 254.625,298.010 257.604 C 297.812 260.583,297.582 263.115,297.499 263.229 C 297.415 263.344,297.286 264.422,297.212 265.625 C 297.138 266.828,297.022 268.423,296.954 269.169 L 296.831 270.526 298.572 271.478 C 299.529 272.001,300.758 272.599,301.302 272.806 C 301.846 273.012,302.292 273.248,302.292 273.329 C 302.292 273.410,302.690 273.592,303.177 273.735 C 303.664 273.878,304.250 274.112,304.479 274.257 C 304.708 274.401,305.552 274.735,306.354 274.999 C 307.156 275.263,307.859 275.542,307.917 275.619 C 307.974 275.696,308.630 275.927,309.375 276.131 C 310.120 276.336,310.823 276.574,310.938 276.660 C 311.052 276.746,312.036 277.031,313.125 277.292 C 314.214 277.553,315.198 277.838,315.313 277.926 C 315.427 278.014,316.365 278.249,317.396 278.449 C 318.427 278.648,319.365 278.883,319.479 278.969 C 319.594 279.056,321.094 279.331,322.813 279.580 C 324.531 279.829,326.125 280.117,326.354 280.219 C 328.883 281.346,355.620 281.352,356.458 280.226 C 356.516 280.149,357.945 279.867,359.635 279.599 C 361.326 279.332,362.708 279.047,362.708 278.967 C 362.708 278.887,363.482 278.655,364.427 278.453 C 365.372 278.251,366.240 278.012,366.354 277.923 C 366.469 277.834,367.313 277.544,368.229 277.278 C 369.146 277.013,369.943 276.738,370.000 276.667 C 370.057 276.597,370.432 276.411,370.833 276.256 C 371.234 276.100,372.233 275.660,373.053 275.278 C 373.873 274.896,374.646 274.583,374.772 274.583 C 374.897 274.583,375.000 274.504,375.000 274.407 C 375.000 274.309,375.398 274.054,375.885 273.839 C 376.372 273.625,376.818 273.390,376.875 273.318 C 376.932 273.246,377.214 273.069,377.500 272.924 C 378.051 272.646,380.240 271.225,380.417 271.032 C 380.474 270.969,380.849 270.692,381.250 270.417 C 381.651 270.141,382.026 269.865,382.083 269.802 C 382.141 269.739,382.618 269.342,383.145 268.919 C 383.671 268.496,384.824 267.418,385.708 266.523 C 386.591 265.628,387.403 264.896,387.511 264.896 C 387.620 264.896,387.685 264.845,387.656 264.783 C 387.613 264.689,388.802 263.050,389.161 262.708 C 389.222 262.651,389.740 261.901,390.313 261.042 C 390.885 260.182,391.419 259.430,391.497 259.371 C 391.576 259.311,391.826 258.829,392.053 258.300 C 392.280 257.771,392.560 257.279,392.675 257.208 C 392.790 257.137,393.040 256.611,393.230 256.039 C 393.420 255.468,393.644 255.000,393.729 255.000 C 393.813 255.000,394.050 254.461,394.256 253.802 C 394.461 253.143,394.796 252.229,395.001 251.771 C 395.205 251.313,395.487 250.375,395.627 249.688 C 395.767 249.000,395.957 248.390,396.048 248.332 C 396.252 248.203,397.083 242.861,397.083 241.683 C 397.083 241.216,397.177 240.833,397.292 240.833 C 397.425 240.833,397.500 238.924,397.500 235.521 C 397.500 232.599,397.420 230.208,397.322 230.208 C 397.224 230.208,397.084 229.482,397.009 228.594 C 396.844 226.616,396.262 223.097,396.055 222.813 C 395.971 222.698,395.731 221.948,395.521 221.146 C 395.312 220.344,395.025 219.500,394.884 219.271 C 394.742 219.042,394.563 218.620,394.485 218.333 C 394.326 217.752,392.884 214.746,392.685 214.583 C 392.615 214.526,392.413 214.198,392.235 213.854 C 391.937 213.278,390.097 210.709,389.226 209.653 C 387.730 207.839,386.990 207.029,385.581 205.660 C 384.698 204.802,384.033 204.007,384.103 203.893 C 384.173 203.779,384.131 203.747,384.009 203.823 C 383.887 203.898,383.568 203.777,383.300 203.554 C 382.050 202.513,381.307 201.928,380.755 201.553 C 379.222 200.510,378.358 199.971,377.396 199.459 C 376.823 199.153,376.307 198.841,376.250 198.764 C 376.092 198.552,370.099 195.625,369.823 195.625 C 369.691 195.625,369.583 195.542,369.583 195.440 C 369.583 195.338,368.974 195.039,368.229 194.776 C 367.484 194.513,366.875 194.236,366.875 194.161 C 366.875 194.086,366.477 193.908,365.990 193.765 C 365.503 193.623,364.816 193.340,364.465 193.136 C 364.113 192.933,363.316 192.599,362.694 192.394 C 362.072 192.190,361.516 191.956,361.458 191.875 C 361.401 191.795,360.698 191.513,359.896 191.250 C 359.094 190.987,358.391 190.704,358.333 190.622 C 358.276 190.539,357.667 190.310,356.979 190.111 C 356.292 189.913,355.682 189.680,355.625 189.594 C 355.568 189.507,354.865 189.223,354.063 188.962 C 353.260 188.700,352.510 188.417,352.396 188.333 C 352.281 188.249,351.672 188.013,351.042 187.809 C 350.411 187.605,349.849 187.373,349.792 187.292 C 349.734 187.211,349.031 186.931,348.229 186.670 C 347.427 186.408,346.677 186.126,346.563 186.042 C 346.448 185.958,345.793 185.682,345.107 185.429 C 344.421 185.176,343.811 184.901,343.753 184.817 C 343.694 184.734,343.180 184.491,342.610 184.277 C 342.041 184.064,341.478 183.812,341.360 183.718 C 341.242 183.623,340.396 183.161,339.479 182.691 C 336.540 181.181,333.177 178.822,333.286 178.345 C 333.318 178.207,333.257 178.148,333.151 178.213 C 332.920 178.356,331.760 177.080,331.567 176.472 C 331.492 176.235,331.337 176.042,331.224 176.042 C 331.110 176.042,331.075 175.948,331.146 175.833 C 331.217 175.719,331.192 175.625,331.092 175.625 C 330.877 175.625,330.208 173.602,330.208 172.950 C 330.208 172.703,330.115 172.500,330.000 172.500 C 329.735 172.500,329.719 167.633,329.982 167.133 C 330.087 166.934,330.332 166.138,330.526 165.365 C 330.721 164.591,330.968 163.958,331.077 163.958 C 331.186 163.958,331.217 163.865,331.146 163.750 C 331.075 163.635,331.105 163.542,331.212 163.542 C 331.320 163.542,331.532 163.241,331.685 162.874 C 332.011 162.085,334.847 159.199,335.735 158.750 C 336.076 158.579,336.401 158.380,336.458 158.308 C 336.741 157.954,339.651 156.698,340.938 156.374 C 341.740 156.172,342.548 155.927,342.733 155.831 C 344.595 154.863,361.667 154.888,361.667 155.858 C 361.667 155.959,361.878 156.041,362.135 156.040 C 362.852 156.037,367.382 156.915,367.500 157.080 C 367.557 157.159,368.214 157.342,368.958 157.485 C 369.703 157.628,370.594 157.871,370.938 158.026 C 371.281 158.180,372.266 158.510,373.125 158.758 C 373.984 159.007,374.781 159.284,374.896 159.374 C 375.010 159.465,375.690 159.702,376.406 159.901 C 377.122 160.100,377.708 160.360,377.708 160.479 C 377.708 160.597,377.770 160.633,377.845 160.557 C 377.921 160.482,378.085 160.499,378.210 160.596 C 378.335 160.693,378.930 160.945,379.531 161.156 C 380.133 161.368,380.625 161.616,380.625 161.708 C 380.625 161.800,380.746 161.875,380.895 161.875 C 381.043 161.875,382.379 162.492,383.864 163.246 C 386.821 164.749,387.578 165.086,387.419 164.829 C 387.284 164.610,387.682 161.690,387.922 161.146 C 388.022 160.917,388.312 159.135,388.564 157.188 C 388.817 155.240,389.083 153.599,389.155 153.542 C 389.227 153.484,389.502 151.938,389.766 150.104 C 390.324 146.227,390.322 146.242,390.479 145.833 C 390.545 145.661,390.760 144.255,390.956 142.708 C 391.151 141.161,391.377 139.849,391.457 139.792 C 391.675 139.635,392.230 135.014,392.015 135.147 C 391.912 135.210,391.769 135.171,391.695 135.059 C 391.622 134.948,390.859 134.645,390.000 134.386 C 389.141 134.127,388.391 133.850,388.333 133.770 C 388.276 133.689,387.479 133.409,386.563 133.147 C 385.646 132.884,384.802 132.597,384.688 132.509 C 384.573 132.421,383.776 132.181,382.917 131.976 C 382.057 131.771,381.307 131.541,381.250 131.466 C 381.193 131.390,380.161 131.111,378.958 130.844 C 377.755 130.578,376.677 130.290,376.563 130.205 C 376.448 130.119,375.417 129.885,374.271 129.684 C 373.125 129.484,372.094 129.247,371.979 129.160 C 371.865 129.072,370.177 128.796,368.229 128.546 C 366.281 128.297,364.543 128.017,364.366 127.925 C 363.694 127.576,354.199 127.139,349.271 127.230 M2.083 144.270 L 2.083 158.542 22.292 158.542 L 42.500 158.542 42.500 218.438 L 42.500 278.333 58.958 278.333 L 75.417 278.333 75.417 218.439 L 75.417 158.544 95.365 158.491 L 115.313 158.438 115.313 144.271 L 115.313 130.104 58.698 130.052 L 2.083 129.999 2.083 144.270 " stroke="none" fill="#0c0c0c" fill-rule="evenodd"></path><path id="path2" d="" stroke="none" fill="#980808" fill-rule="evenodd"></path><path id="path3" d="" stroke="none" fill="#300808" fill-rule="evenodd"></path><path id="path4" d="" stroke="none" fill="#0c1008" fill-rule="evenodd"></path></g></svg>